<?xml version="1.0" encoding="utf-8"?>
<svg viewBox="122.80001068115234 129.20001220703125 328.9999694824219 335.0999450683594" width="328.9999694824219" height="335.0999450683594" xmlns="http://www.w3.org/2000/svg"><path class="st1" d="M299,163.1c-4.4-7.5-25-2.4-34.2-0.3c-1-12.9-6-33.6-23.6-28.5c-1.3,16.3,7,29.3,4.9,44.8&#10;&#9;&#9;c-37.2,13.5-46.3-40.4-81.2-35.8c-5.9,20.2,61.2,54.4,30.9,75c-10.7,7.3-29.3-17.4-33.1-2.6c-4,15.7,29.2,17.9,12.8,32.3&#10;&#9;&#9;c-9.7,8.5-29.1-4.9-37.7,6.3c-15,19.6,18,14.9,23.2,19.4c8.7,7.7-2.2,26.1-3.7,34.6c-1.7,9.6,6,4.1-1.7,16.3&#10;&#9;&#9;c-4.7,7.4-11.4,7.5-12.4,16.2c10.2,1.6,18.5-4.2,28.5-3c6.7,14.1-12.6,11.2-12.5,23.3c0.1,16.6,17.9,1.1,25.6,3.5&#10;&#9;&#9;c9.3,2.9,10.9,18.2,14.4,23.7c7.4,11.6,9.9,11.1,23.6,16.4c10,3.9,13.2,11.1,22.1,15.8c11.4,6,16.7-2.5,26.9,0.4&#10;&#9;&#9;c17.5,4.9,14.5,43.4,34.2,41.6c3.3-14.3-17.6-32.5,0.3-41.6c13-6.6,31.7,11,43.3,12.6c-0.9-7.8-7.8-13.5-3-21.5&#10;&#9;&#9;c3.4-5.6,15.8-4.9,21-9.5c8.1-7.2,5.7-15.2,9.5-23.1c4.6-9.6,9.3-11,16.4-17.7c8-7.6,8.5-5.4,12.3-16.8c2.6-8-0.3-16.7,5.4-24&#10;&#9;&#9;c9.5-12.2,40.6-7.2,34.7-30.2c-14.3-7.1-17.2,8.8-30.3,6.7c-2.3-8.4-0.6-18.5-2-25c-2-9.6-10.8-17.8-7.4-29.2&#10;&#9;&#9;c1.8-6.2,34.2-43,0.4-32.3c-1.5,13.9-16.4,27.3-20.3,6.9c-0.9-4.9,7-12.1,5.6-14.6c-4.7-7.8-10.5-0.3-16.6-1.8&#10;&#9;&#9;c-8.1-2-6.9,2.4-14-5.9c-3.7-4.3,0.1-12.2-5.8-17.4c-8.6-7.6-29.1-3.7-39.8-4.3C315.8,167.8,301.3,166.9,299,163.1z" style="fill: rgb(204, 204, 204); opacity: 1;" transform="matrix(1, 0, 0, 1, 0, 0)"/></svg>