<?xml version="1.0" encoding="utf-8"?>
<svg viewBox="505.9000244140625 399.1000061035156 46.5999755859375 61.699981689453125" width="46.5999755859375" height="61.699981689453125" xmlns="http://www.w3.org/2000/svg"><path class="st1" d="M520,460.8c-0.4,0,0-0.5,0.2-0.5C520.2,460.5,520.2,460.7,520,460.8 M513.2,456.6c-0.1,0.8-0.5,1.5-1,2.2&#10;&#9;&#9;C511.8,458.8,513.1,456.8,513.2,456.6 M537,454.3c-0.2-0.3-0.2-0.5,0.1-0.7c0.5,0,0.7,1.1,0.3,1.1C537.2,454.7,537,454.5,537,454.3&#10;&#9;&#9; M517.3,448c0.2-0.9,0.4-2.7,1.2-3.4c0.3-0.3,1.3-2.1,0.9-2.1c0.2,0.2,0.5,0.4,0.7,0.6c0.5,0,0.8-0.6,1-1c0.6-0.9,0.6,0.4,1.1,0.4&#10;&#9;&#9;c0.6,0,0.8-1.4,1.3-1c0.5,0.4-0.1,0.7,0.9,0.7c1,0,0.5,0,1.2,0.7c0.4-0.2,1.9,0.3,1.9,0.8c0,1-0.3,0.9,0.8,1.4&#10;&#9;&#9;c0.5,0.2-0.1,0.9-0.1,1.4c0,1.1,1.3,0.7,1.3,1c0,0.4-1.3,0.1-1.3,0.9c0.2,0.3,0.4,0.5,0.6,0.8c0,0.6-0.7,0.1-0.9,0.3&#10;&#9;&#9;c-0.3,0.3,0.5,1.4-0.3,1.2c-0.7-0.2-0.1,0.9-0.3,1.2c-0.5-0.5-1.5-0.1-1,0.4c0.4,0.4-0.8,0.1-0.8,0.1c-0.6,0-0.8,1.1-1.4,1.1&#10;&#9;&#9;c-1.2,0-0.8-0.9-1.8,0.2c-1.1-0.6-1.3-1-2.5-1c-0.2-1.4-0.8-1.5-1.8-1.5c-0.2,0,1.1-1.5-0.1-1.4C517.2,449.8,518.3,448.5,517.3,448&#10;&#9;&#9; M532.2,452.8c0-0.5,1.4-1.6,1.8-0.9C533.9,452.6,532.6,452.9,532.2,452.8 M518.4,452.5c0.1,0.1-0.4,0-0.3,0c0-0.3,0.2-0.4,0.5-0.3&#10;&#9;&#9;C518.5,452.3,518.4,452.4,518.4,452.5 M511.6,438.2c-0.8,0,0.4-0.7,0.4-0.2C512,438.1,511.8,438.2,511.6,438.2 M512.4,437&#10;&#9;&#9;C512.4,436.1,513.6,437,512.4,437 M526.7,408.1c1,0,1.2,1.3,2.3,0.6c0.3-0.2,0.3-2.6,0.9-1.9c0.2,0.3,0.1,1.1,0.7,1.1&#10;&#9;&#9;c0.6,0,1.1-0.2,1.2-0.8c-0.3-0.5-0.2-1.7,0.2-2.1c0,0.6,0.4,3.2,1.4,2.7c0.5-0.3,0.4-0.9,1.2-0.6c0.7,0.3,0.9,1.2,1.6,1.5&#10;&#9;&#9;c0.9,0.4,0.9-0.4,1.3-0.9c0.9-1.1,0.5,1.5,0.5,1.6c0,1.4,2.5-0.8,2.5-1.6c-0.2,0.9-1.4,2.4-0.4,3c0.4,0.2,0.8,0.5,1.2,0.8&#10;&#9;&#9;c0.3-0.1,1.1-0.5,1.3-0.1c0.3,0.4-0.2,0.6-0.2,1c0,0.4,0.3,0.9,0.5,1.2c0.8,1.5,0.9,0.4,2,0.4c0,0.6-0.1,0.7-0.5,1.2&#10;&#9;&#9;c-0.4,0.4,0.4,1.6,0.8,1.1c0.7-0.7,1,1,1.1,1.3c-0.6,0.6-1.3-0.6-1,1c0.2,1,0.8,1.6,1.8,1.7c0.9,0.2-1.5,1.3-0.9,2&#10;&#9;&#9;c-0.1-0.1,2,0.8,0.8,1.1c-1.2,0.2-1.8,1.4-0.5,2c0.4,0.2,2.3,0.7,2.3,1.2c0,1.2-2.1-0.5-2.3-0.6c-1.1-0.7-1.8,0.4-2,1.4&#10;&#9;&#9;c-0.2,1,1.6,1.4,1.1,2c-0.6,0.7-1.3-0.8-1.8-0.8c-1.4,0-0.6,1.2-0.1,1.6c1.2,1-1.7,0-1.6,0c-2.1,0,0.4,2.6,0.4,3.2&#10;&#9;&#9;c-0.6,0.6-1.3-2.9-2.4-1.4c-0.2,0.3-4-0.3-2.5,1.8c0.5,0.7-0.2,1.5-0.4,0.8c0-0.1-0.3-2.7-1-1.8c-1.3,1.6-1.6,1.9-3.5,1.2&#10;&#9;&#9;c-0.4,0.8-0.2,1.7-0.4,2.5c-0.3,0.4-0.5,0.4-0.7,0c0-0.9,0.4-1.7,0.6-2.6c0.7-3.8-2.2,1.2-1.7,1.2c-0.4,0,0.5-2.8-0.7-2.8&#10;&#9;&#9;c-0.7,0-0.5,0.8-1.1,0.8c-0.5,0-0.5,0.5-0.9,0.5c0.6-0.8,1-1.8,0.4-2.6c-0.4-0.4-0.7-0.9-1.2-1.1c-0.7-0.3-0.6,0.7-1.1,0.7&#10;&#9;&#9;c-0.3,0-0.5-0.8-1.1-0.8c-0.4,0.2-0.7,0.5-1,0.9c-0.3,0.4,0.3,2.5,0.2,2.5c-0.4,0-0.8-0.9-1.1-0.6c1.1-1.1-2.4-1.4-2.4-0.9&#10;&#9;&#9;c0,0.4,0.2,1.7,0.4,2.6c-0.1,0-0.1,0.1-0.2,0.1c-0.1,0-0.8-2.3-0.9-2.5c-0.5-0.9-1-0.5-1.7-0.5c0.1-0.1,0.2-0.2,0.3-0.2&#10;&#9;&#9;c-0.2-0.2-0.7,0.3-1.1,0.2c-0.7-0.2-1.2,0.1-1.8-0.3c-0.8-0.6-0.9-2-1-2.9c-0.2-1.1-0.6-1.6-0.6-2.6c-0.4,0-0.9-0.1-1.3-0.2&#10;&#9;&#9;c-0.7-0.3-0.8-0.2-1.4-0.2c0-0.5-0.5-1.2-0.7-1.6c-0.6-1.2-0.7-2.1-0.7-3.4c0-1.8,1-2.4,2.7-2.4c0.7,0-0.2-0.8,0.4-0.8&#10;&#9;&#9;c0.7,0,0.6,1.3,1.6,1c0.5-0.1,0.4,0.4,0.6,0.7c0.7,1.5,0.4,1.5,1.9,1.5c-0.1-0.3-0.3-0.6-0.5-0.8c0,1.5,3.6-1.2,3.8,0&#10;&#9;&#9;c0.2,1.1,1.6-0.2,1.9-0.6c0.9-1.5-1.5-1-1.5-1.7c0.5,0.1,0.9,0.2,1.4,0.2c0-0.4-0.5-1-0.2-1.4c0.4-0.4,0.8-0.5,0.9-1.1&#10;&#9;&#9;c0.3-0.9-0.1-1.3,0.7-1.8c0.5-0.3,1.2-0.5,1.5-1.1c0.5-1.2-1-1.6,0.7-1.6C527.3,410.1,526.7,409,526.7,408.1 M510.9,434.9h-0.3&#10;&#9;&#9;C510.7,434.5,511,434.7,510.9,434.9 M511.2,434.5c0-0.2,0.2-0.3,0.3-0.3C511.5,434.3,511.3,434.5,511.2,434.5 M527.5,434.3&#10;&#9;&#9;c0.1-0.2,0.1-0.4,0.3-0.6c0.1,0.2,0.1,0.5,0.1,0.8C527.7,434.4,527.6,434.3,527.5,434.3 M514.3,432.7c-0.4,0,0.7-0.8,0.6-0.7&#10;&#9;&#9;C514.7,432.3,514.5,432.5,514.3,432.7 M515.3,431.7c0.2-0.1,0.3-0.3,0.5-0.4C515.7,431.5,515.5,431.6,515.3,431.7 M524.1,429.6&#10;&#9;&#9;c0,0.1,0.1,0.3,0.1,0.4c0.5-0.5,0-1.2,0.3-1.3C524.2,428.7,523.6,429.1,524.1,429.6 M506.4,421.6c0.2,0,0.5,0.1,0.7,0.2&#10;&#9;&#9;C505.9,422.4,506.2,421.6,506.4,421.6 M551.6,417.6c0.1-0.1-0.2-0.5,0.2-0.5C552.5,417.1,552,418,551.6,417.6 M508.5,414.9&#10;&#9;&#9;c0-0.8,0.6,0.7,0.6,0.7C508.9,415.4,508.7,415.2,508.5,414.9 M507.6,413.3L507.6,413.3c0.2,0-0.3-0.3,0.2-0.3&#10;&#9;&#9;c0.2,0,0.2,0.4,0.2,0.5C507.8,413.4,507.7,413.3,507.6,413.3 M507.2,411.9c-0.2-0.2-0.1-0.3,0.2-0.4c0.2,0,0.7,0.9,0.2,0.9&#10;&#9;&#9;C507.2,412.4,507.1,412.2,507.2,411.9 M526.7,408.1c-0.1-0.1-0.2-0.3-0.3-0.4C526.7,407.6,526.8,407.8,526.7,408.1 M513.4,407.3&#10;&#9;&#9;c0-0.6,1-1,1,0C514.4,408,513.5,407.7,513.4,407.3 M508.6,400.3c0-1,0.9,0,0.3,0.5C508.8,400.6,508.7,400.5,508.6,400.3&#10;&#9;&#9; M521.1,399.9c0.2,0.2,0.4,0.4,0.4,0.8C521.4,400.4,521.3,400.1,521.1,399.9 M521.1,399.9c-0.3-0.2-0.4-0.4-0.5-0.8&#10;&#9;&#9;c0.1,0,0.1,0,0.2,0C520.9,399.4,521,399.6,521.1,399.9" style="fill: rgb(204, 204, 204); opacity: 1;" transform="matrix(1, 0, 0, 1, 0, 0)"/></svg>